<?xml version="1.0" encoding="UTF-8" standalone="no"?>
<!DOCTYPE svg PUBLIC "-//W3C//DTD SVG 1.1//EN"
 "http://www.w3.org/Graphics/SVG/1.1/DTD/svg11.dtd">
<!-- Generated by graphviz version 13.1.0 (20250701.0955)
 -->
<!-- Title: G Pages: 1 -->
<svg width="893pt" height="188pt"
 viewBox="0.00 0.00 893.00 188.00" xmlns="http://www.w3.org/2000/svg" xmlns:xlink="http://www.w3.org/1999/xlink">
<g id="graph0" class="graph" transform="scale(1 1) rotate(0) translate(4 184)">
<title>G</title>
<polygon fill="white" stroke="none" points="-4,4 -4,-184 889.11,-184 889.11,4 -4,4"/>
<!-- 0 -->
<g id="node1" class="node">
<title>0</title>
<ellipse fill="none" stroke="black" cx="39.07" cy="-90" rx="27" ry="18"/>
<text xml:space="preserve" text-anchor="middle" x="39.07" y="-84.95" font-family="Times New Roman,serif" font-size="14.00">B</text>
</g>
<!-- 9 -->
<g id="node10" class="node">
<title>9</title>
<ellipse fill="none" stroke="black" cx="39.07" cy="-18" rx="39.07" ry="18"/>
<text xml:space="preserve" text-anchor="middle" x="39.07" y="-12.95" font-family="Times New Roman,serif" font-size="14.00">add(M)</text>
</g>
<!-- 0&#45;&gt;9 -->
<g id="edge1" class="edge">
<title>0&#45;&gt;9</title>
<path fill="none" stroke="black" d="M39.07,-71.7C39.07,-64.41 39.07,-55.73 39.07,-47.54"/>
<polygon fill="black" stroke="black" points="42.57,-47.62 39.07,-37.62 35.57,-47.62 42.57,-47.62"/>
</g>
<!-- 1 -->
<g id="node2" class="node">
<title>1</title>
<ellipse fill="none" stroke="black" cx="39.07" cy="-162" rx="27" ry="18"/>
<text xml:space="preserve" text-anchor="middle" x="39.07" y="-156.95" font-family="Times New Roman,serif" font-size="14.00">D</text>
</g>
<!-- 1&#45;&gt;0 -->
<g id="edge2" class="edge">
<title>1&#45;&gt;0</title>
<path fill="none" stroke="black" d="M39.07,-143.7C39.07,-136.41 39.07,-127.73 39.07,-119.54"/>
<polygon fill="black" stroke="black" points="42.57,-119.62 39.07,-109.62 35.57,-119.62 42.57,-119.62"/>
</g>
<!-- 2 -->
<g id="node3" class="node">
<title>2</title>
<ellipse fill="none" stroke="black" cx="111.07" cy="-162" rx="27" ry="18"/>
<text xml:space="preserve" text-anchor="middle" x="111.07" y="-156.95" font-family="Times New Roman,serif" font-size="14.00">C</text>
</g>
<!-- 3 -->
<g id="node4" class="node">
<title>3</title>
<ellipse fill="none" stroke="black" cx="191.07" cy="-162" rx="35.49" ry="18"/>
<text xml:space="preserve" text-anchor="middle" x="191.07" y="-156.95" font-family="Times New Roman,serif" font-size="14.00">cof(N)</text>
</g>
<!-- 4 -->
<g id="node5" class="node">
<title>4</title>
<ellipse fill="none" stroke="black" cx="282.07" cy="-162" rx="37.53" ry="18"/>
<text xml:space="preserve" text-anchor="middle" x="282.07" y="-156.95" font-family="Times New Roman,serif" font-size="14.00">cof(M)</text>
</g>
<!-- 5 -->
<g id="node6" class="node">
<title>5</title>
<ellipse fill="none" stroke="black" cx="377.07" cy="-162" rx="39.58" ry="18"/>
<text xml:space="preserve" text-anchor="middle" x="377.07" y="-156.95" font-family="Times New Roman,serif" font-size="14.00">non(M)</text>
</g>
<!-- 6 -->
<g id="node7" class="node">
<title>6</title>
<ellipse fill="none" stroke="black" cx="472.07" cy="-162" rx="37.02" ry="18"/>
<text xml:space="preserve" text-anchor="middle" x="472.07" y="-156.95" font-family="Times New Roman,serif" font-size="14.00">cov(N)</text>
</g>
<!-- 7 -->
<g id="node8" class="node">
<title>7</title>
<ellipse fill="none" stroke="black" cx="565.07" cy="-162" rx="37.53" ry="18"/>
<text xml:space="preserve" text-anchor="middle" x="565.07" y="-156.95" font-family="Times New Roman,serif" font-size="14.00">non(N)</text>
</g>
<!-- 8 -->
<g id="node9" class="node">
<title>8</title>
<ellipse fill="none" stroke="black" cx="660.07" cy="-162" rx="39.07" ry="18"/>
<text xml:space="preserve" text-anchor="middle" x="660.07" y="-156.95" font-family="Times New Roman,serif" font-size="14.00">cov(M)</text>
</g>
<!-- 10 -->
<g id="node11" class="node">
<title>10</title>
<ellipse fill="none" stroke="black" cx="754.07" cy="-162" rx="37.02" ry="18"/>
<text xml:space="preserve" text-anchor="middle" x="754.07" y="-156.95" font-family="Times New Roman,serif" font-size="14.00">add(N)</text>
</g>
<!-- 11 -->
<g id="node12" class="node">
<title>11</title>
<ellipse fill="none" stroke="black" cx="847.07" cy="-162" rx="38.04" ry="18"/>
<text xml:space="preserve" text-anchor="middle" x="847.07" y="-156.95" font-family="Times New Roman,serif" font-size="14.00">Aleph1</text>
</g>
</g>
</svg>
